<svg xmlns="http://www.w3.org/2000/svg" viewBox="0 0 48 48" width="48px" height="48px">
  <path fill="#fbc02d" d="M43.6 20.4h-18v8.4h10.4c-1.6 4.4-5.6 7.6-10.4 7.6-6.2 0-11.2-5-11.2-11.2s5-11.2 11.2-11.2c2.8 0 5.4 1 7.4 2.6l6.2-6.2C35.6 6.2 31.1 4.4 26 4.4 14.8 4.4 6 13.2 6 24.4s8.8 20 20 20c10.2 0 19.8-8 19.8-20 0-1.2-.1-2.4-.2-3.6z"/>
  <path fill="#e53935" d="M6 12.6l6.4 4.8c2.4-3.8 6.6-6.4 11.6-6.4 2.8 0 5.4 1 7.4 2.6l6.2-6.2C31.6 4.6 28.4 4 26 4 14.8 4 6 13.2 6 24.4c0-4 1.2-8 3.4-11.8l-.4-.2z"/>
  <path fill="#4caf50" d="M26 43.6c6.2 0 11.8-2.8 15.6-7.2L36.8 32c-2.8 3.2-6.8 5.2-10.8 5.2-5.8 0-10.6-4.8-10.6-10.6 0-.4.1-.8.2-1.2l-6.8-5c-1.2 2.4-2 5.2-2 8.2 0 11.2 8.8 20 20 20z"/>
  <path fill="#1565c0" d="M43.6 20.4h-18v8.4h10.4c-1.6 4.4-5.6 7.6-10.4 7.6-6.2 0-11.2-5-11.2-11.2s5-11.2 11.2-11.2c2.8 0 5.4 1 7.4 2.6l6.2-6.2C35.6 6.2 31.1 4.4 26 4.4c-11.2 0-20 8.8-20 20s8.8 20 20 20c10.2 0 19.8-8 19.8-20 0-1.2-.1-2.4-.2-3.6z"/>
</svg>